<svg width="44" height="41" viewBox="0 0 44 41" fill="none" xmlns="http://www.w3.org/2000/svg">
    <g clip-path="url(#clip0_1_190)">
        <path
            d="M12.3933 8.26833L9.09333 5.21041L6.50833 7.61916L9.78999 10.6771L12.3933 8.26833ZM7.33333 17.9375H1.83333V21.3542H7.33333V17.9375ZM23.8333 0.939575H20.1667V5.97916H23.8333V0.939575ZM37.4917 7.61916L34.9067 5.21041L31.625 8.26833L34.21 10.6771L37.4917 7.61916ZM31.6067 31.0233L34.8883 34.0983L37.4733 31.6896L34.1733 28.6317L31.6067 31.0233ZM36.6667 17.9375V21.3542H42.1667V17.9375H36.6667ZM22 9.39583C15.9317 9.39583 11 13.9912 11 19.6458C11 25.3004 15.9317 29.8958 22 29.8958C28.0683 29.8958 33 25.3004 33 19.6458C33 13.9912 28.0683 9.39583 22 9.39583ZM20.1667 38.3521H23.8333V33.3125H20.1667V38.3521ZM6.50833 31.6725L9.09333 34.0812L12.375 31.0062L9.78999 28.5975L6.50833 31.6725Z"
            fill="#EEBD11" />
    </g>
    <defs>
        <clipPath id="clip0_1_190">
            <rect width="44" height="41" fill="white" />
        </clipPath>
    </defs>
</svg>
    